<?xml version="1.0" encoding="UTF-8"?>
<svg id="_레이어_2" data-name="레이어 2" xmlns="http://www.w3.org/2000/svg" viewBox="0 0 594.63 841.89">
  <defs>
    <style>
      .cls-1 {
        fill: none;
      }

      .cls-1, .cls-2, .cls-3, .cls-4, .cls-5, .cls-6, .cls-7, .cls-8 {
        stroke-width: 0px;
      }

      .cls-2 {
        fill: #337e39;
      }

      .cls-3 {
        fill: #080103;
      }

      .cls-4 {
        fill: #105595;
      }

      .cls-5 {
        fill: #e2c427;
      }

      .cls-6 {
        fill: #cd3b27;
      }

      .cls-7 {
        fill: #6c311a;
      }

      .cls-8 {
        fill: #672f19;
      }
    </style>
  </defs>
  <g id="_레이어_1-2" data-name="레이어 1">
    <g>
      <g>
        <path class="cls-5" d="m478.69,291.55c-11.14,34.06-16.56,64.17-16.56,92.08,0,37.37,8.88,61.68,8.97,61.91l1.15,3.08-1.73,2.78c-26.07,41.84-78.06,88.29-117.11,119.88-29.16,23.61-52.05,39.7-52.27,39.85l-3.83,2.68-3.83-2.68c-.23-.15-23.11-16.24-52.28-39.85-39.03-31.59-91.03-78.04-117.1-119.88l-1.74-2.78,1.15-3.08c.1-.24,8.98-24.33,8.98-61.91,0-27.9-5.42-58.02-16.56-92.08l-1.54-4.71,4.07-2.84c52.66-36.58,114.5-55.92,178.85-55.92s126.2,19.34,178.84,55.92l4.07,2.84-1.54,4.71Z"/>
        <g>
          <path class="cls-2" d="m455.47,383.64c0,39.21,9.39,64.25,9.39,64.25-44.6,71.59-167.55,157.78-167.55,157.79,0-.01-122.96-86.2-167.55-157.79,0,0,9.39-25.04,9.39-64.25s-10.01-73.15-16.88-94.15c49.66-34.51,109.98-54.74,175.04-54.74s125.38,20.22,175.04,54.74c-6.87,21.01-16.88,56.39-16.88,94.15Z"/>
          <path class="cls-8" d="m383.59,477.68c-1.19,10.42-4.08,23.24-10.02,38.41,0,0-35.94,32.34-76.26,60.67-40.33-28.33-76.27-60.67-76.27-60.67-18.8-48.13-7.11-72.46-7.11-72.46,52.55-9.29,83.38-36.82,83.38-36.82,0,0,30.82,27.53,83.38,36.82,0,0,5.47,11.41,2.89,34.04Z"/>
          <path class="cls-8" d="m297.31,279.21c-14.25,0-25.81,11.55-25.81,25.81,0,11.66,7.74,21.52,18.36,24.71,1.17-2.97,4.06-5.07,7.45-5.07s6.27,2.1,7.45,5.07c10.62-3.2,18.36-13.05,18.36-24.71,0-14.25-11.55-25.81-25.81-25.81Z"/>
          <circle class="cls-5" cx="297.31" cy="305.01" r="16.52"/>
          <circle class="cls-4" cx="297.31" cy="332.66" r="8.01"/>
          <g>
            <circle class="cls-5" cx="338.7" cy="324.65" r="16.95"/>
            <circle class="cls-5" cx="255.92" cy="324.65" r="16.95"/>
          </g>
          <path class="cls-4" d="m297.31,279.21c4.05,0,7.88.93,11.29,2.59,2.57-6.95,1.24-18.95,1.24-18.95-1.41-9.88-7.22-9.88-12.53-9.88h0c-5.31,0-11.12,0-12.53,9.88,0,0-1.32,11.99,1.24,18.95,3.41-1.66,7.24-2.59,11.29-2.59Z"/>
          <g>
            <path class="cls-2" d="m297.31,358.14c0,3.98,1.88,8.56,8.01,10.25s14.69-.48,15.29-5.12-3.25-9.34-11.09-11.63c-7.84-2.29-12.21,1.33-12.21,6.51Z"/>
            <path class="cls-2" d="m297.31,358.14c0,3.98-1.88,8.56-8.01,10.25s-14.69-.48-15.29-5.12c-.6-4.64,3.25-9.34,11.09-11.63,7.84-2.29,12.21,1.33,12.21,6.51Z"/>
          </g>
          <path class="cls-5" d="m313.26,343.92c-3.68-3.13-7.66-4.55-10.73-5.18-1.4,1.21-3.22,1.94-5.22,1.94s-3.82-.73-5.22-1.94c-3.07.63-7.05,2.05-10.73,5.18-7.35,6.27-9.04,13.02-7.35,19.35-.6-4.64,3.25-9.34,11.09-11.63,7.84-2.29,12.21,1.33,12.21,6.51,0-5.18,4.37-8.8,12.21-6.51,7.84,2.29,11.69,6.99,11.09,11.63,1.69-6.33,0-13.08-7.35-19.35Z"/>
          <g>
            <path class="cls-2" d="m359.69,322.57c0-.55-.05-1.1-.11-1.64-.03-.27-.07-.52-.1-.78-.04-.29-.1-.58-.14-.87-.13-.73-.3-1.44-.52-2.13-.1-.3-.19-.61-.3-.91-.08-.23-.16-.47-.25-.69-.1-.25-.2-.49-.3-.71-.44-1-.95-1.93-1.54-2.81-.1-.14-.19-.29-.29-.43,0,0-.02-.02-.03-.03-.07-.1-.13-.19-.21-.28-.07-.1-.15-.21-.23-.31-8.23-10.48-27.83-7.4-35.81,6.61-.06.1-.1.19-.16.29h-.02c-.81,1.42-1.76,2.74-2.81,3.97-1.06,1.22-2.23,2.34-3.48,3.35-.63.5-1.29.98-1.97,1.43-.33.22-.68.43-1.03.64-.34.2-.68.39-1.02.57-.08.04-.15.08-.23.11-.25.13-.5.26-.75.37-.11.07-.24.11-.36.17-.3.14-.62.28-.93.4-.29.12-.61.25-.91.36-.47.17-.93.32-1.41.47.07.17.12.34.18.52.11.34.21.7.27,1.08,0,.04.02.08.02.12.03.15.05.3.06.45,1.91.35,4.11.84,6.6,1.49,9.01,2.4,18.42,12.07,30.59,10.08.37-.07.74-.13,1.1-.2.3-.06.6-.12.89-.19.32-.08.64-.15.94-.23.31-.09.62-.17.91-.26.59-.18,1.16-.37,1.7-.58.29-.11.56-.23.84-.34.25-.11.49-.22.72-.34.02,0,.03,0,.05-.02l.17-.09c.37-.19.73-.39,1.09-.6.07-.05.13-.09.2-.12.46-.29.9-.59,1.31-.9,0-.02.02-.02.03-.03.21-.16.42-.33.63-.51.62-.51,1.19-1.09,1.71-1.72.09-.1.18-.21.28-.32.08-.1.15-.18,1.83-2.77.1-.18.2-.37.3-.56.1-.2.21-.41.3-.62l.74-1.75c.12-.33.25-.67.35-1,.23-.67.41-1.34.56-2.01.08-.33.14-.67.21-1,.29-1.59.4-3.18.34-4.72Zm-20.98,19.02c-9.36,0-16.95-7.58-16.95-16.94s7.59-16.95,16.95-16.95,16.95,7.58,16.95,16.95-7.59,16.94-16.95,16.94Z"/>
            <path class="cls-2" d="m288.46,329.26c-.3-.11-.62-.24-.91-.36-.31-.12-.63-.26-.93-.4-.12-.06-.25-.1-.36-.17-.25-.11-.5-.24-.75-.37-.08-.04-.15-.08-.23-.11-.34-.18-.68-.37-1.02-.57-.35-.21-.69-.42-1.03-.64-.68-.45-1.34-.92-1.97-1.43-1.26-1.01-2.43-2.13-3.48-3.35-1.05-1.23-2-2.55-2.81-3.96h-.02c-.06-.1-.1-.2-.16-.3-7.98-14-27.58-17.09-35.81-6.61-.09.1-.16.2-.23.31-.08.09-.14.18-.21.28,0,0-.02.02-.03.03-.1.14-.19.29-.29.43-.59.88-1.1,1.81-1.54,2.81-.1.23-.21.47-.3.71-.09.22-.17.46-.25.69-.11.3-.21.61-.3.91-.22.69-.39,1.4-.52,2.13-.05.29-.1.58-.14.87-.04.26-.08.51-.1.78-.06.54-.1,1.09-.11,1.64-.06,1.54.05,3.13.34,4.72.07.33.13.67.21,1,.15.67.33,1.34.56,2.01.1.33.23.67.35,1l.74,1.75c.1.21.2.42.3.62.1.19.19.38.3.56,1.68,2.59,1.75,2.68,1.83,2.77.1.11.19.22.28.32.52.63,1.09,1.21,1.71,1.72.21.18.42.35.63.51,0,0,.02,0,.03.03.42.31.86.62,1.31.9.07.04.13.08.2.12.35.21.71.41,1.09.6.08.03.14.07.22.1.24.12.48.23.72.34.28.11.55.23.84.34.54.21,1.11.4,1.7.58.29.09.6.17.91.26.3.08.62.15.94.23.3.07.59.13.9.19.36.07.73.13,1.1.2,12.17,1.99,21.58-7.68,30.59-10.08,2.48-.66,4.68-1.14,6.6-1.49,0-.1.02-.19.04-.28,0-.06,0-.11.02-.17.02-.13.04-.27.07-.39.07-.31.14-.62.25-.91.05-.14.1-.29.15-.42-.48-.14-.94-.3-1.41-.47Zm-32.54,12.34c-9.36,0-16.95-7.58-16.95-16.94s7.59-16.95,16.95-16.95,16.95,7.58,16.95,16.95-7.59,16.94-16.95,16.94Z"/>
          </g>
          <path class="cls-3" d="m318.73,357.15c1.04,1.31,1.67,2.72,1.87,4.16-.2-1.44-.83-2.85-1.87-4.16Z"/>
          <path class="cls-6" d="m415.48,322.41s-16.44,7.2-28.56,4.71c-11.96-2.46-25.36,1.88-31.86,9.89-.09.11-.19.22-.28.32,0,0,0,0,0,0-2.83,3.33-6.77,5.23-12.31,6.14-12.16,2-21.58-7.69-30.59-10.08-2.48-.66-4.68-1.14-6.59-1.5.02.26.04.51.04.77,0,2.43-1.08,4.6-2.79,6.07h0c3.07.63,7.05,2.05,10.73,5.18,7.35,6.27,9.04,13.02,7.35,19.35h0c-.6,4.64-9.16,6.81-15.29,5.12s-8.01-6.27-8.01-10.25c0,3.98-1.88,8.56-8.01,10.25-6.13,1.69-14.69-.48-15.29-5.12h0c-1.69-6.33,0-13.08,7.35-19.35,3.68-3.13,7.66-4.55,10.73-5.18h0c-1.71-1.47-2.79-3.64-2.79-6.07,0-.26.01-.52.04-.77-1.91.36-4.11.84-6.59,1.5-9.01,2.39-18.43,12.08-30.59,10.08-5.54-.91-9.48-2.81-12.31-6.14,0,0,0,0,0,0-.09-.11-.19-.21-.28-.32-6.51-8.01-19.91-12.35-31.86-9.89-12.12,2.49-28.56-4.71-28.56-4.71,0,0,24.74,37.76,22.92,71.8,0,0,6.14-4.15,6.31-13.95,0,0,11.45,22.54,5.56,49.55,0,0,22.34-.23,41.1-29.46,0,0,1,9.8-2.66,17.6,0,0,14.15-3.26,24.41-13.52,8.29-8.29,12.82-11.89,20.52-11.89s12.23,3.6,20.52,11.89c10.26,10.26,24.41,13.52,24.41,13.52-3.65-7.8-2.66-17.6-2.66-17.6,18.76,29.23,41.1,29.46,41.1,29.46-5.89-27,5.56-49.55,5.56-49.55.17,9.8,6.31,13.95,6.31,13.95-1.83-34.04,22.92-71.8,22.92-71.8Z"/>
          <path class="cls-3" d="m274.02,361.31c.2-1.44.83-2.85,1.87-4.16-1.04,1.31-1.67,2.72-1.87,4.16Z"/>
          <path class="cls-4" d="m377.9,338.73c-9.25-1.22-18.66,7.05-31.8,11.23-9.08,2.89-20.08,3.14-26.01,3.02,1.34,3.46,1.41,6.93.52,10.29h0c-.6,4.64-9.16,6.81-15.29,5.12s-8.01-6.27-8.01-10.25c0,3.98-1.88,8.56-8.01,10.25-6.13,1.69-14.69-.48-15.29-5.12h0c-.89-3.36-.83-6.83.52-10.29-5.93.12-16.93-.13-26.01-3.02-13.14-4.18-22.54-12.45-31.8-11.23-9.25,1.22-11.49,7.9-9.4,14.27,2.09,6.36,9.25,19.65,12.54,41.14,3.28,21.5,17.32,12.24,23.59,6.12,6.27-6.12,22.8-16.12,53.87-16.12s47.6,10,53.87,16.12c6.27,6.12,20.3,15.38,23.59-6.12,3.28-21.5,10.45-34.78,12.54-41.14,2.09-6.36-.15-13.04-9.4-14.27Z"/>
          <g>
            <path class="cls-5" d="m307.36,384.52c5.53.42,10.52,1.16,14.97,2.14,4.58-12.28-1.12-18.98-1.12-18.98-4.12,8.45-10,14.2-13.85,16.84Z"/>
            <path class="cls-5" d="m347.55,380c4.79,8.83,3.14,15.19,1.55,18.41.79.64,1.48,1.26,2.08,1.85,3.51,3.42,9.44,7.82,14.56,7.28-2.44-22.71-18.19-27.54-18.19-27.54Z"/>
            <path class="cls-5" d="m330.55,374.73s13.74-3.84,12.56-23.94c-3.78.94-7.73,1.5-11.43,1.82,1.6,4.47,3.02,12.35-1.13,22.12Z"/>
            <path class="cls-5" d="m370.84,355.07c11.7-1.82,13.92-8.74,13.98-13.58-1.62-1.37-3.89-2.36-6.91-2.76-1.79-.24-3.58-.12-5.41.26,3.93,8.4-1.65,16.08-1.65,16.08Z"/>
            <path class="cls-5" d="m307.64,376.01c.04-1.05-.8-1.92-1.85-1.92h-6.61c-1.02,0-1.86.83-1.86,1.86v8.2c3.29,0,6.4.12,9.37.33.64-2.27.87-6.37.95-8.46Z"/>
            <path class="cls-5" d="m375.21,391.52c1.14-6.59,2.62-12.37,4.18-17.37-3.4-.65-8.74-3.03-15.65-10.38,0,0-2.82,16.36,11.47,27.75Z"/>
            <path class="cls-5" d="m287.26,384.52c-5.53.42-10.52,1.16-14.97,2.14-4.58-12.28,1.12-18.98,1.12-18.98,4.12,8.45,10,14.2,13.85,16.84Z"/>
            <path class="cls-5" d="m247.07,380c-4.79,8.83-3.14,15.19-1.55,18.41-.79.64-1.48,1.26-2.08,1.85-3.51,3.42-9.44,7.82-14.56,7.28,2.44-22.71,18.19-27.54,18.19-27.54Z"/>
            <path class="cls-5" d="m264.08,374.73s-13.74-3.84-12.56-23.94c3.78.94,7.73,1.5,11.43,1.82-1.6,4.47-3.02,12.35,1.13,22.12Z"/>
            <path class="cls-5" d="m223.78,355.07c-11.7-1.82-13.92-8.74-13.98-13.58,1.62-1.37,3.89-2.36,6.91-2.76,1.79-.24,3.58-.12,5.41.26-3.93,8.4,1.65,16.08,1.65,16.08Z"/>
            <path class="cls-5" d="m286.99,376.01c-.04-1.05.8-1.92,1.85-1.92h6.61c1.02,0,1.86.83,1.86,1.86v8.2c-3.29,0-6.4.12-9.37.33-.64-2.27-.87-6.37-.95-8.46Z"/>
            <path class="cls-5" d="m219.42,391.52c-1.14-6.59-2.62-12.37-4.18-17.37,3.4-.65,8.74-3.03,15.65-10.38,0,0,2.82,16.36-11.47,27.75Z"/>
          </g>
          <polygon class="cls-3" points="354.77 337.33 354.77 337.33 354.77 337.33 354.77 337.33"/>
          <path class="cls-6" d="m410.14,296.49c10.19.97,18.67,4.18,33.79-2.05-5.47.43-13.63.11-23.71-5.04-10.09-5.15-18.42-8.38-26.72-6.65-5.28,1.1-9.66,3.53-12.3,5.28-1.35,3.44-3.89,6.79-8.37,9.94,2.75-.19,6.4-.22,9.74.49,3.35.71,6.3,1.84,9.48,2.44.04-.03,7.92-5.37,18.09-4.41Z"/>
          <path class="cls-4" d="m410.14,296.49c-10.17-.96-18.06,4.38-18.09,4.41,2.93.55,6.06.64,9.91-.49,0,0-1.53,17.21-13.69,26.95,3.87.56,8.09.24,12.03-.45,7.48-14.43,13.16-13.69,26.36-17.86,14.48-4.57,17.27-14.59,17.27-14.59-15.13,6.22-23.6,3.01-33.79,2.05Z"/>
          <polygon class="cls-3" points="239.85 337.33 239.85 337.33 239.85 337.33 239.85 337.33"/>
          <path class="cls-6" d="m213.42,288.03c-2.64-1.75-7.03-4.18-12.3-5.28-8.3-1.73-16.63,1.5-26.72,6.65-10.09,5.15-18.24,5.47-23.71,5.04,15.13,6.22,23.6,3.01,33.79,2.05,10.17-.96,18.06,4.38,18.09,4.41,3.19-.6,6.13-1.74,9.48-2.44,3.34-.7,6.99-.68,9.74-.49-4.49-3.15-7.02-6.5-8.37-9.94Z"/>
          <path class="cls-4" d="m184.48,296.49c-10.19.97-18.67,4.18-33.79-2.05,0,0,2.79,10.02,17.27,14.59,13.21,4.17,18.89,3.42,26.36,17.86,3.94.69,8.15,1.02,12.03.45-12.16-9.74-13.69-26.95-13.69-26.95,3.85,1.14,6.98,1.04,9.91.49-.04-.03-7.92-5.37-18.09-4.41Z"/>
          <g>
            <path class="cls-5" d="m278.73,257.54c4.43,0,7.17.98,7.17.98h0c-.49,1.18-.88,2.6-1.12,4.33,0,0-1.32,11.99,1.24,18.95,0,0,0,0,0,0-3.88,1.89-7.21,4.73-9.7,8.21-2.54-2.9-5.6-7.27-7.18-17.14-1.72-10.77,5.16-15.33,9.58-15.33Z"/>
            <path class="cls-5" d="m315.89,257.54c-4.43,0-7.17.98-7.17.98h0c.49,1.18.88,2.6,1.12,4.33,0,0,1.32,11.99-1.24,18.95,0,0,0,0,0,0,3.88,1.89,7.21,4.73,9.7,8.21,2.54-2.9,5.6-7.27,7.18-17.14,1.72-10.77-5.16-15.33-9.58-15.33Z"/>
          </g>
          <path class="cls-4" d="m325.73,269.71s0,0,0,0c12.49,1.23,16.86,6.74,22.59,11.2,12.89-3.37,15.63-14.07,15.63-14.07-10.46,3-15.62-1.23-19.31-4.08-3.69-2.85-7.3-5.8-13.21-5.76-3.84.03-6.8,1.97-8.76,3.83,1.78,1.98,3.08,4.89,3.06,8.87Z"/>
          <path class="cls-4" d="m268.9,269.71s0,0,0,0c-12.49,1.23-16.86,6.74-22.59,11.2-12.89-3.37-15.63-14.07-15.63-14.07,10.46,3,15.62-1.23,19.31-4.08,3.69-2.85,7.3-5.8,13.21-5.76,3.84.03,6.8,1.97,8.76,3.83-1.78,1.98-3.08,4.89-3.06,8.87Z"/>
          <g>
            <path class="cls-2" d="m367.87,458.5c0-.08-.02-.17-.04-.31-.01-.07-.03-.14-.05-.24-.02-.08-.05-.16-.08-.25-.03-.08-.06-.16-.1-.24-.04-.08-.08-.16-.14-.26-.04-.07-.09-.14-.14-.21-.05-.07-.11-.14-.17-.2-.06-.07-.12-.13-.19-.19-.08-.07-.16-.13-.19-.15l-.35-.22c-.05-.03-.11-.05-.15-.07-.05-.02-.1-.05-.17-.07l-.2-.07c-.07-.02-.14-.04-.18-.04-.09-.02-.17-.04-.27-.05-.09-.01-.19-.02-.3-.02-.08,0-.16,0-.23,0-.11,0-.21.02-.28.03-.09.01-.17.03-.28.06-.08.02-.17.05-.24.08-.08.03-.17.07-.26.11-.07.04-.15.08-.19.11-.08.05-.16.1-.23.15-.07.05-.13.11-.23.2-.06.06-.12.12-.18.18-.07.08-.13.16-.14.18l-.15.21c-1.96,3.16-6.12,4.14-9.28,2.19-1.53-.95-2.6-2.43-3.01-4.19-.41-1.76-.12-3.56.83-5.09,1.27-2.05,3.42-3.27,5.8-3.2.71.03,1.44-.24,1.98-.75.55-.52.87-1.24.88-1.99.01-.74-.27-1.44-.79-1.98s-1.21-.83-1.95-.84h-.18c-4.23,0-8.25,2.23-10.47,5.83-1.73,2.79-2.26,6.09-1.51,9.29.75,3.2,2.71,5.91,5.5,7.64,1.91,1.18,4.1,1.82,6.34,1.84-1.98,2.17-4.8,4.88-8.43,7.44l-.28.2c-4.15,2.89-8.38,4.9-12.56,5.96-.77-.02-3.16-.2-4.77-1.81-1.32-1.32-1.91-3.41-1.77-6.22.19-3.72,1.48-5.99,3.84-6.77,2.08-.68,4.15.12,4.54.59.71.87.83,2.42.24,3.18-.39.5-1.29.24-1.97-.06-.68-.3-1.43-.33-2.13-.06-.69.26-1.24.79-1.55,1.46-.3.68-.32,1.43-.06,2.13.27.69.79,1.24,1.46,1.54,3.12,1.39,6.16.98,8.13-1.03.53.24,1.11.41,1.71.51.35.05.71.08,1.08.08,3.18,0,5.85-1.95,6.82-4.96.47-1.46-.34-3.03-1.81-3.5-1.46-.46-3.02.35-3.49,1.8-.3.94-1.2,1.16-1.74,1.08-.53-.08-.53-.3-.53-.54v-.14c-.08-1.85-.74-3.63-1.86-5-1.82-2.23-6.15-3.82-10.58-2.36-2.68.88-7.24,3.58-7.66,11.77-.2,3.95.68,7.16,2.61,9.56-3.56-.08-7.64-.85-10.99-3.32-4.43-3.28-6.77-9.06-6.93-17.19-.3-14.49,3.76-20.12,7.21-22.29,2.87-1.8,6.53-1.88,9.8-.22,2.85,1.45,3.28,5.35,2.79,8.26-.54,3.19-2.5,6.82-5.53,7.24-2.04.28-3.65,0-4.64-.82-.7-.58-1.07-1.41-1.13-2.55-.05-.85.16-1.49.54-1.66.08-.04.14-.04.18-.04,1.1.99,2.81.94,3.85-.13,1.07-1.1,1.04-2.86-.06-3.93-1.6-1.55-4.12-1.93-6.28-.95-2.55,1.16-3.96,3.79-3.78,7.03.13,2.42,1.03,4.5,2.59,6.03-.2.21-.38.44-.55.67-1.33,1.83-1.66,4.06-.93,6.28.56,1.69,1.65,2.98,3.16,3.74,1,.5,2.15.75,3.43.75,1.6,0,2.9-.4,3.26-.52,1.45-.49,2.23-2.06,1.75-3.51-.48-1.45-2.06-2.24-3.51-1.76-.63.21-1.86.35-2.44.06-.1-.05-.23-.12-.36-.5-.22-.66-.02-1.05.15-1.29.56-.78,1.88-1.24,3.52-1.24.07,0,.13,0,.2-.01.65-.02,1.25-.06,1.81-.14,5.84-.8,9.36-6.51,10.25-11.82,1.06-6.27-1.2-11.82-5.75-14.14-5.03-2.56-10.74-2.38-15.28.46-4.67,2.93-10.17,10.02-9.81,27.11.16,7.8,2.11,13.96,5.81,18.36-2.91,1.09-4.78,3.18-5.57,4.91-.31.67-.34,1.43-.08,2.13.26.7.77,1.25,1.44,1.56.37.17.76.26,1.16.26,1.08,0,2.07-.63,2.53-1.62.4-.87,2.9-3.72,7.73-1.82,1.53.69,3.18,1.21,4.94,1.58-2.45,1.54-4.73,3.31-6.82,5.27l-.17.15c-1.56,1.43-4.81,4.41-6.23,4.25-.6-.06-.72-1.03-.72-1.84,0-1.53-1.25-2.78-2.78-2.78s-2.78,1.25-2.78,2.78c0,4.57,2.57,6.71,5.03,7.26-.19.34-.34.64-.46.89-4.87,9.88-4.83,18.71-3.93,24.37.63,3.99,2.79,6.61,6.08,7.37.49.11,1,.17,1.5.17,3.11,0,5.77-2.12,6.47-5.15.4-1.73.1-3.51-.84-5.01s-2.41-2.56-4.13-2.95c-.72-.17-1.47-.04-2.1.35-.63.39-1.07,1.01-1.24,1.73-.17.72-.04,1.47.35,2.1.39.63,1.01,1.07,1.73,1.23.58.13.95.72.81,1.3-.07.29-.23.52-.48.67-.25.15-.53.2-.81.14-.47-.11-1.45-.34-1.84-2.82-.56-3.55-.74-8.64.93-14.55.85,2.62,2.42,4.53,4.69,5.71,3.2,1.66,6.92,1.44,10.3-.61,4.62-2.81,7.85-8.61,7.85-14.05.1-.81,1.41-3.39,2.56-3.39.96,0,1.72,0,1.72,2.09,0,1.53,1.25,2.78,2.78,2.78s2.78-1.25,2.78-2.78c0-4.65-2.86-7.65-7.28-7.65-1.88,0-3.65.82-5.12,2.34-1.15-1.05-2.62-1.69-4.23-1.82-3.48-.26-7.47,1.95-8.11,6.12-.23,1.51.81,2.94,2.32,3.17,1.52.24,2.94-.81,3.17-2.32.16-1.03,1.38-1.47,2.19-1.43,1.37.11,1.65,1.6,1.65,2.83,0,3.54-2.23,7.56-5.18,9.35-1.73,1.06-3.37,1.2-4.85.43-1.9-.98-2.71-3.59-2.42-7.74.32-4.49,4.45-8.51,4.49-8.54l.07-.07c4.89-4.64,11-7.95,18.14-9.84.43-.11.78-.2.98-.26,1.25-.31,2.51-.69,3.78-1.15-.35,1.6-.32,3.19.07,4.72.76,2.92,2.45,4.2,3.73,4.76,1.74.76,3.92.64,5.59-.26,1.53-.81,2.6-2.21,2.95-3.82.34-1.55-.03-3.13-1.04-4.44-.93-1.22-2.68-1.45-3.9-.52-1.18.91-1.43,2.58-.56,3.84-.02.01-.04.03-.07.04-.18.1-.55.15-.74.07-.16-.07-.4-.39-.58-1.07-.7-2.7,1.27-5.99,5.39-9.01,9.28-6.46,15.19-14.77,16.42-18.59l.03-.09c.03-.09.05-.17.05-.21.02-.1.04-.19.05-.27.01-.08.02-.17.02-.28,0-.09,0-.18,0-.26Zm-10.86-15.71h0s0,0,0,0Z"/>
            <path class="cls-2" d="m293.52,493.62c0-1.53-1.25-2.78-2.78-2.78s-2.78,1.25-2.78,2.78c0,.8-.13,1.77-.73,1.84-1.39.16-4.66-2.82-6.22-4.25l-.14-.13c-2.08-1.97-4.37-3.74-6.84-5.3,1.74-.36,3.38-.88,4.87-1.55,4.9-1.93,7.39.92,7.79,1.79.45.98,1.44,1.62,2.53,1.62.4,0,.8-.09,1.16-.25.67-.31,1.19-.86,1.45-1.56.26-.7.23-1.45-.08-2.13-.8-1.73-2.67-3.82-5.57-4.91,3.7-4.4,5.65-10.56,5.81-18.36.35-17.1-5.14-24.18-9.81-27.11-4.54-2.85-10.25-3.02-15.28-.46-4.55,2.31-6.81,7.86-5.75,14.14.89,5.31,4.41,11.02,10.25,11.82.57.08,1.16.12,1.82.14h.2c1.64.01,2.95.48,3.52,1.26.17.23.37.62.15,1.29-.12.38-.26.45-.36.5-.57.29-1.8.14-2.43-.06-1.45-.48-3.02.31-3.51,1.76-.48,1.45.3,3.03,1.74,3.51.36.12,1.66.52,3.26.52,1.28,0,2.43-.25,3.43-.75,1.51-.75,2.6-2.05,3.16-3.74.73-2.22.4-4.45-.93-6.28-.17-.23-.35-.45-.55-.67,1.57-1.54,2.46-3.61,2.59-6.03.18-3.24-1.23-5.87-3.78-7.03-2.16-.98-4.68-.6-6.28.95-1.1,1.07-1.13,2.83-.06,3.93,1.04,1.07,2.75,1.12,3.85.13.04,0,.11,0,.18.04.38.17.58.81.54,1.66-.06,1.14-.43,1.97-1.13,2.55-.99.82-2.59,1.1-4.64.82-3.03-.42-4.99-4.04-5.53-7.24-.49-2.91-.05-6.81,2.79-8.26,3.27-1.66,6.93-1.58,9.8.22,3.46,2.17,7.51,7.8,7.21,22.29-.17,8.13-2.5,13.91-6.93,17.19-3.34,2.47-7.42,3.24-10.99,3.32,1.93-2.4,2.81-5.61,2.61-9.56-.42-8.19-4.98-10.89-7.66-11.77-4.43-1.45-8.76.13-10.58,2.36-1.12,1.37-1.77,3.14-1.86,5.02v.12c0,.24,0,.46-.54.54-.54.09-1.44-.14-1.74-1.08-.47-1.45-2.03-2.26-3.5-1.8-1.46.47-2.27,2.04-1.8,3.49.96,3.01,3.64,4.96,6.82,4.96.37,0,.73-.03,1.08-.08.6-.09,1.17-.27,1.71-.51,1.98,2.01,5.02,2.42,8.13,1.03.68-.3,1.2-.85,1.46-1.54.27-.69.24-1.45-.06-2.13-.3-.68-.85-1.2-1.55-1.47-.7-.27-1.45-.24-2.12.06-.69.31-1.59.57-1.98.06-.58-.77-.47-2.31.24-3.18.39-.48,2.46-1.28,4.54-.59,2.36.77,3.65,3.05,3.84,6.77.14,2.81-.45,4.91-1.77,6.22-1.61,1.61-4,1.79-4.77,1.81-4.18-1.07-8.4-3.07-12.58-5.98l-.26-.18c-3.63-2.57-6.44-5.27-8.43-7.44,2.24-.02,4.43-.65,6.34-1.84,2.79-1.73,4.74-4.44,5.5-7.64.75-3.2.22-6.5-1.51-9.29-2.23-3.6-6.24-5.83-10.47-5.83h-.18c-1.53.02-2.76,1.29-2.74,2.82.01.75.33,1.47.88,1.99.54.51,1.27.77,1.95.75,2.39-.08,4.56,1.14,5.83,3.19.95,1.53,1.24,3.34.83,5.09-.41,1.76-1.48,3.24-3.01,4.19-3.16,1.95-7.33.97-9.29-2.19l-.1-.14c-.06-.08-.12-.17-.19-.24-.06-.07-.12-.12-.21-.21-.07-.06-.13-.12-.19-.16-.08-.06-.16-.11-.22-.15-.07-.04-.14-.08-.24-.13-.08-.04-.16-.07-.23-.1-.08-.03-.16-.06-.27-.09-.08-.02-.16-.04-.22-.05-.1-.02-.2-.03-.3-.04-.08,0-.16,0-.25,0-.09,0-.19,0-.29.02-.09.01-.17.03-.23.05l-.17.03-.22.08c-.05.02-.1.04-.14.06-.06.03-.12.05-.18.09-.05.03-.11.06-.16.09l-.13.09c-.08.06-.16.12-.24.19-.07.06-.13.13-.17.17-.07.07-.13.14-.18.21-.05.07-.1.14-.17.25-.04.07-.08.14-.11.2-.04.08-.07.16-.12.29-.03.08-.05.15-.07.23-.02.08-.04.17-.05.25-.02.09-.03.18-.03.27s0,.18,0,.3c0,.08,0,.17.02.24.01.1.03.19.05.24.01.08.03.16.05.23l.03.09c1.24,3.84,7.15,12.15,16.4,18.59,4.14,3.04,6.12,6.33,5.41,9.03-.18.68-.41.99-.58,1.07-.18.08-.55.03-.74-.07-.03-.01-.05-.03-.07-.04.88-1.21.64-2.92-.56-3.84-1.22-.93-2.96-.7-3.89.52-1.01,1.32-1.38,2.89-1.05,4.44.35,1.62,1.42,3.01,2.95,3.82,1.67.9,3.85,1.02,5.59.26,1.28-.56,2.97-1.84,3.73-4.76.4-1.52.42-3.12.07-4.72,1.26.45,2.51.83,3.74,1.14.25.07.59.16,1,.26,7.17,1.89,13.28,5.21,18.16,9.84l.08.08s4.18,4.05,4.49,8.55c.29,4.15-.52,6.76-2.42,7.74-1.49.77-3.12.63-4.85-.43-2.95-1.8-5.18-5.82-5.18-9.35,0-1.79.56-2.74,1.65-2.83.81-.06,2.03.4,2.19,1.43.11.73.51,1.38,1.11,1.82s1.33.62,2.07.5c1.51-.24,2.56-1.66,2.32-3.17-.64-4.17-4.63-6.38-8.11-6.12-1.61.12-3.08.77-4.23,1.82-1.46-1.52-3.23-2.34-5.12-2.34-4.49,0-7.28,2.93-7.28,7.65,0,1.53,1.25,2.78,2.78,2.78s2.78-1.25,2.78-2.78c0-2.09.76-2.09,1.72-2.09,1.16,0,2.46,2.59,2.56,3.33,0,5.49,3.23,11.29,7.85,14.1,3.38,2.06,7.1,2.27,10.3.61,2.27-1.18,3.83-3.09,4.69-5.71,1.67,5.91,1.49,11.01.93,14.55-.39,2.49-1.37,2.71-1.84,2.82-.29.07-.57.02-.82-.14-.25-.16-.42-.39-.48-.67-.13-.58.23-1.16.81-1.3.72-.17,1.34-.61,1.73-1.24.39-.63.52-1.38.35-2.1-.17-.72-.61-1.34-1.23-1.73-.63-.39-1.38-.52-2.1-.35-1.73.4-3.19,1.45-4.13,2.95-.94,1.51-1.24,3.29-.84,5.01.7,3.03,3.36,5.15,6.47,5.15.5,0,1.01-.06,1.5-.17,3.29-.76,5.45-3.38,6.08-7.37.89-5.66.94-14.49-3.93-24.37-.12-.25-.27-.54-.46-.89,2.45-.54,5.03-2.68,5.03-7.26Zm-56.06-50.83h0s0,0,0,0Zm-8.54,14.69s0,0,0,0h0s0,0,0,0Z"/>
          </g>
          <path class="cls-6" d="m250.99,293.8c14.54.08,20.58,13.02,20.58,13.02h0c-.04-.6-.06-1.2-.06-1.8,0-5.6,1.79-10.78,4.82-15.01-2.54-2.9-5.6-7.28-7.17-17.13-.18-1.13-.25-2.17-.25-3.17-18.58,1.83-19.18,13.13-33.05,16.38-18.63,4.36-23.7-8.16-23.7-8.16,5.09,20.6,24.31,15.8,38.85,15.88Z"/>
          <path class="cls-4" d="m271.57,306.82s-6.03-12.95-20.58-13.02c-14.54-.08-33.77,4.73-38.85-15.88-.53,7.77,1.19,15.54,13.17,22.26,7.7,4.32,11.48,8.79,13.21,11.44.15-.21.3-.43.46-.63,8.28-10.55,28.09-7.35,35.96,6.89h.03c-1.91-3.29-3.11-7.05-3.39-11.06h0Z"/>
          <path class="cls-8" d="m234.93,322.57h0c.15-4.41,1.62-8.51,4.04-11.59-.16.2-.31.42-.46.63-1.72-2.65-5.5-7.13-13.21-11.44-1.29-.72-2.45-1.46-3.52-2.2-2.75-.19-6.4-.22-9.74.49-6.43,1.36-11.35,4.32-19.39,1.95,7.86,6.31,16.07,9.16,27.48,12.18,11.41,3.02,14.79,9.99,14.79,9.99Z"/>
          <path class="cls-5" d="m234.94,322.58h0s-3.38-6.98-14.79-9.99c-11.41-3.02-19.62-5.87-27.48-12.18,0,0,1.53,17.21,13.69,26.95.46-.07.91-.14,1.36-.23,11.96-2.46,25.36,1.88,31.86,9.89,0,0,0,0,0,0-1.27-1.58-2.32-3.46-3.17-5.7-1.11-2.91-1.56-5.88-1.46-8.73Z"/>
          <path class="cls-6" d="m343.63,293.8c-14.54.08-20.58,13.02-20.58,13.02h0c.04-.6.06-1.2.06-1.8,0-5.6-1.79-10.78-4.82-15.01,2.54-2.9,5.6-7.28,7.17-17.13.18-1.13.25-2.17.25-3.17,18.58,1.83,19.18,13.13,33.05,16.38,18.63,4.36,23.7-8.16,23.7-8.16-5.09,20.6-24.31,15.8-38.85,15.88Z"/>
          <path class="cls-4" d="m323.06,306.82s6.03-12.95,20.58-13.02c14.54-.08,33.77,4.73,38.85-15.88.53,7.77-1.19,15.54-13.17,22.26-7.7,4.32-11.48,8.79-13.21,11.44-.15-.21-.3-.43-.46-.63-8.28-10.55-28.09-7.35-35.96,6.89h-.03c1.91-3.29,3.11-7.05,3.39-11.06h0Z"/>
          <path class="cls-8" d="m359.7,322.57h0c-.15-4.41-1.62-8.51-4.04-11.59.16.2.31.42.46.63,1.72-2.65,5.5-7.13,13.21-11.44,1.29-.72,2.45-1.46,3.52-2.2,2.75-.19,6.4-.22,9.74.49,6.43,1.36,11.35,4.32,19.39,1.95-7.86,6.31-16.07,9.16-27.48,12.18-11.41,3.02-14.79,9.99-14.79,9.99Z"/>
          <path class="cls-5" d="m359.69,322.58h0s3.38-6.98,14.79-9.99c11.41-3.02,19.62-5.87,27.48-12.18,0,0-1.53,17.21-13.69,26.95-.46-.07-.91-.14-1.36-.23-11.96-2.46-25.36,1.88-31.86,9.89,0,0,0,0,0,0,1.27-1.58,2.32-3.46,3.17-5.7,1.11-2.91,1.56-5.88,1.46-8.73Z"/>
          <path class="cls-5" d="m317.3,533.2c-9.66,6.08-19.98,15.24-19.98,24.4,0-9.16-10.32-18.32-19.98-24.4-9.66-6.08-58.42-38.28-66.29-55.52,1.19,10.42,4.08,23.24,10.02,38.41,0,0,35.94,32.34,76.26,60.67,40.32-28.33,76.26-60.67,76.26-60.67,5.93-15.18,8.83-27.99,10.02-38.41-7.87,17.24-56.63,49.44-66.29,55.52Z"/>
          <path class="cls-4" d="m384.5,507.11s7.52-19.33,8.35-42.85c1.03-29.54-6.4-46.4,8.9-72.16,0,0-.92,10.07,2.72,46.88,3.88,39.31-19.97,68.13-19.97,68.13Z"/>
          <path class="cls-5" d="m384.5,507.11s22.97-31.33,19.97-68.13c-2.01-24.61-6.44-44.05,14.49-81.9,0,0-2.86,21.77,4.11,68.06,7.48,49.68-38.57,81.96-38.57,81.96Z"/>
          <path class="cls-6" d="m384.5,507.11s44.5-35.3,38.57-81.96c-4.36-34.35-7.42-82.88,26.93-115,0,0-16.82,50.76-7.34,114.66,7.67,51.66-58.16,82.31-58.16,82.31Z"/>
          <path class="cls-7" d="m384.5,507.11s3.82-10.56,3.03-20.01c0,0,4.25,5.25,3.31,11.55,0,0,4.51-1.31,10.76-.21,0,0-5.88,4.09-17.1,8.67Z"/>
          <path class="cls-4" d="m210.13,507.11s-7.52-19.33-8.35-42.85c-1.03-29.54,6.4-46.4-8.9-72.16,0,0,.92,10.07-2.72,46.88-3.88,39.31,19.97,68.13,19.97,68.13Z"/>
          <path class="cls-5" d="m210.13,507.11s-22.97-31.33-19.97-68.13c2.01-24.61,6.44-44.05-14.49-81.9,0,0,2.86,21.77-4.11,68.06-7.48,49.68,38.57,81.96,38.57,81.96Z"/>
          <path class="cls-6" d="m210.13,507.11s-44.5-35.3-38.57-81.96c4.36-34.35,7.42-82.88-26.93-115,0,0,16.82,50.76,7.34,114.66-7.67,51.66,58.16,82.31,58.16,82.31Z"/>
          <path class="cls-7" d="m210.13,507.11s-3.82-10.56-3.03-20.01c0,0-4.25,5.25-3.31,11.55,0,0-4.51-1.31-10.76-.21,0,0,5.88,4.09,17.1,8.67Z"/>
        </g>
      </g>
      <rect class="cls-1" width="594.63" height="841.89"/>
    </g>
  </g>
</svg>